<svg xmlns="http://www.w3.org/2000/svg" viewBox="0 0 512 512"><path d="M426.667 0c-47.052 0-85.333 38.281-85.333 85.333 0 40.814 60.469 123.419 74.637 142.22-.004 6.073 0 12.036-.147 17.509-.156 5.885 4.49 10.792 10.385 10.948h.292c5.75 0 10.5-4.594 10.656-10.385.147-5.616.143-11.746.147-17.992C451.378 208.961 512 126.195 512 85.333 512 38.281 473.719 0 426.667 0zm0 206.146c-23.448-32.26-64-93.656-64-120.813 0-35.292 28.708-64 64-64s64 28.708 64 64c0 27.157-40.552 88.552-64 120.813z"/><path d="M426.667 64c-11.76 0-21.333 9.573-21.333 21.333 0 11.76 9.573 21.333 21.333 21.333S448 97.094 448 85.333C448 73.573 438.427 64 426.667 64zM128 234.667c-35.292 0-64 28.708-64 64s28.708 64 64 64 64-28.708 64-64-28.708-64-64-64zm0 106.666c-23.531 0-42.667-19.135-42.667-42.667S104.469 256 128 256s42.667 19.135 42.667 42.667-19.136 42.666-42.667 42.666zM289.573 384.438c-5.521-2.146-11.667.594-13.802 6.094-4.781 12.354-10.76 26.76-18.823 39.958-3.073 5.031-1.479 11.594 3.542 14.667a10.604 10.604 0 0 0 5.552 1.563c3.594 0 7.104-1.813 9.115-5.104 8.938-14.646 15.385-30.146 20.51-43.375 2.125-5.491-.604-11.668-6.094-13.803zM229.427 462.281c-10.688 8.469-22.833 14.844-37.146 19.5-5.604 1.823-8.667 7.844-6.844 13.448 1.469 4.5 5.646 7.365 10.146 7.365 1.094 0 2.208-.167 3.302-.521 16.531-5.375 31.26-13.135 43.792-23.063 4.615-3.667 5.396-10.375 1.74-14.99-3.688-4.603-10.386-5.426-14.99-1.739zM326.5 307.427c-17.604 9.99-27.385 27.333-33.219 39.5-2.552 5.313-.313 11.688 5 14.229a10.66 10.66 0 0 0 14.229-5c7.406-15.448 14.969-24.75 24.531-30.188 5.115-2.906 6.917-9.417 4-14.542-2.895-5.124-9.385-6.926-14.541-3.999zM422.708 281.021c-4.844-3.281-11.5-2.021-14.813 2.854-3.51 5.188-10.698 12.323-32.438 14.271-5.865.531-10.198 5.708-9.667 11.583.5 5.542 5.156 9.708 10.615 9.708.323 0 .646-.01.969-.042 23.094-2.073 38.854-9.781 48.188-23.563 3.303-4.874 2.021-11.509-2.854-14.811z"/><path d="M153.275 490.805C186.932 454.913 256 372.341 256 298.667c0-71.771-56.229-128-128-128s-128 56.229-128 128c0 95.26 115.75 205.76 120.677 210.417a10.603 10.603 0 0 0 7.323 2.917c7.771 0 15.156-.271 22.156-.802 5.875-.448 10.281-5.563 9.833-11.438-.32-4.205-3.041-7.484-6.714-8.956zM128 486.292c-25.198-25.708-106.667-114.5-106.667-187.625C21.333 238.854 68.188 192 128 192s106.667 46.854 106.667 106.667c0 73.125-81.469 161.916-106.667 187.625z"/></svg>