<svg xmlns="http://www.w3.org/2000/svg" viewBox="0 0 479.997 479.997"><path d="M479.99 326.606a8.797 8.797 0 0 0-.02-.54c-.012-.159-.032-.315-.052-.473-.02-.162-.038-.323-.065-.483a9.05 9.05 0 0 0-.104-.495c-.034-.148-.065-.296-.105-.443-.046-.166-.1-.328-.153-.491-.047-.143-.092-.285-.146-.425-.06-.156-.127-.309-.194-.462-.063-.143-.123-.285-.192-.424-.07-.142-.148-.279-.224-.417-.081-.145-.16-.29-.248-.43-.078-.126-.162-.247-.246-.37-.099-.144-.197-.287-.303-.426-.087-.113-.18-.222-.271-.331a8.971 8.971 0 0 0-.352-.406c-.098-.105-.2-.204-.303-.305-.126-.124-.252-.248-.385-.367-.115-.102-.236-.198-.356-.294-.129-.104-.258-.21-.393-.308-.139-.101-.284-.194-.429-.288-.127-.083-.253-.168-.385-.245-.163-.096-.333-.182-.503-.27-.124-.064-.246-.129-.373-.189-.18-.082-.365-.154-.551-.226-.102-.04-.199-.088-.303-.125l-33.602-11.889c-5.207-1.841-10.921.885-12.764 6.092-1.842 5.206.886 10.92 6.092 12.763l14.472 5.121-30.447 11.68V179.473c0-.232-.018-.459-.034-.687a10 10 0 0 0-6.512-10.195l-151.406-55.727v-48.82l8.224 8.231a9.968 9.968 0 0 0 7.074 2.932 9.968 9.968 0 0 0 7.068-2.926c3.906-3.903 3.909-10.235.006-14.142l-23.922-23.943c-.14-.158-.275-.319-.426-.471a9.964 9.964 0 0 0-7.09-2.925 9.972 9.972 0 0 0-7.091 2.925c-.154.154-.292.319-.435.48l-23.907 23.934c-3.903 3.907-3.9 10.239.007 14.142a9.966 9.966 0 0 0 7.067 2.926 9.97 9.97 0 0 0 7.074-2.932l6.354-6.359v47.754L95.119 168.632c-.051.02-.099.044-.149.064-.125.05-.248.104-.371.158a9.81 9.81 0 0 0-.462.223c-.105.054-.212.106-.314.164a9.965 9.965 0 0 0-.668.405l-.086.056c-.234.159-.459.33-.678.507-.066.054-.13.111-.194.167a9.518 9.518 0 0 0-.47.427c-.067.065-.134.129-.198.196a9.462 9.462 0 0 0-.447.493c-.048.055-.098.108-.144.164-.179.22-.349.447-.509.681-.052.075-.097.153-.146.229-.106.165-.209.332-.306.504-.06.104-.115.21-.17.316a9.051 9.051 0 0 0-.229.476c-.049.108-.1.215-.145.325-.104.253-.199.51-.283.772-.025.084-.045.17-.069.254a9.145 9.145 0 0 0-.314 1.548c-.012.098-.025.194-.034.292-.027.298-.046.598-.047.901v171.201l-50.727-16.263 17.434-7.23c5.102-2.116 7.521-7.966 5.406-13.068-2.117-5.102-7.965-7.521-13.068-5.407L8.012 323.659a9.978 9.978 0 0 0-2.491 1.492c-4.651 2.33-6.781 7.886-4.755 12.765l16.509 39.741a10.004 10.004 0 0 0 9.239 6.166 9.97 9.97 0 0 0 3.832-.768c5.101-2.119 7.518-7.971 5.399-13.071l-8.051-19.38 69.143 22.167a10.04 10.04 0 0 0 1.871.402l119.432 38.259a31.557 31.557 0 0 0-.605 6.142c0 17.436 14.186 31.622 31.622 31.622 17.408 0 31.57-14.185 31.57-31.622 0-.703-.031-1.399-.076-2.091l96.825-37.734c.059-.021.118-.036.176-.058l77.479-29.724-1.907 8.711c-1.181 5.395 2.235 10.726 7.63 11.907.721.158 1.44.233 2.148.233 4.597 0 8.735-3.189 9.759-7.864l7.008-32.015c.022-.1.031-.199.05-.299.039-.207.077-.413.104-.619.015-.128.022-.256.033-.385.018-.2.034-.4.039-.6.004-.144-.002-.287-.005-.43zm-240.855 61.011a31.618 31.618 0 0 0-10.691 6.115l-119.761-38.365V192.562h.001l130.451 50.432v144.623zm.001-166.066l-112.563-43.516 112.563-42.959v86.475zm20-87.375l119.165 43.86-119.165 44.429v-88.289zm137.952 214.465l-124.024 48.333a31.657 31.657 0 0 0-13.928-9.366V243.809l137.952-51.433v156.265z"/></svg>