<svg xmlns="http://www.w3.org/2000/svg" viewBox="0 0 512.012 512.012"><path d="M259.992 3.995C121.03 3.995 7.981 117.052 7.981 256.006c0 64.072 29.459 129.682 80.817 180.006a8.654 8.654 0 0 0 6.083 2.485 8.697 8.697 0 0 0 6.205-2.607c3.363-3.424 3.302-8.933-.122-12.288-48.047-47.082-75.603-108.165-75.603-167.596 0-129.377 105.254-234.631 234.631-234.631s234.631 105.254 234.631 234.631c0 4.806 3.893 8.69 8.69 8.69s8.69-3.884 8.69-8.69c0-138.954-113.048-252.011-252.011-252.011zM372.476 461.978a233.077 233.077 0 0 1-30.45 13.939c-4.501 1.668-6.787 6.674-5.11 11.175a8.686 8.686 0 0 0 8.143 5.649 8.555 8.555 0 0 0 3.042-.556 251.022 251.022 0 0 0 32.727-14.973c4.206-2.303 5.744-7.586 3.441-11.792s-7.587-5.763-11.793-3.442zM293.397 488.282a237.482 237.482 0 0 1-33.405 2.355c-4.797 0-8.69 3.884-8.69 8.69s3.893 8.69 8.69 8.69c12.01 0 24.071-.852 35.855-2.52 4.753-.678 8.056-5.084 7.378-9.828-.678-4.754-5.075-8.03-9.828-7.387zM449.6 408.751c-3.632-3.146-9.116-2.737-12.262.878a238.098 238.098 0 0 1-23.68 23.689c-3.624 3.137-4.015 8.629-.869 12.253a8.676 8.676 0 0 0 6.57 2.998 8.573 8.573 0 0 0 5.692-2.138 254.12 254.12 0 0 0 25.418-25.418c3.146-3.624 2.764-9.116-.869-12.262z"/><path d="M503.322 247.307a8.687 8.687 0 0 0-8.69 8.69 239.086 239.086 0 0 1-2.364 33.413c-.678 4.745 2.624 9.151 7.378 9.828a8.703 8.703 0 0 0 9.828-7.386 253.896 253.896 0 0 0 2.538-35.855c0-4.796-3.893-8.69-8.69-8.69zM491.069 332.93c-4.51-1.651-9.507.6-11.184 5.101a234.659 234.659 0 0 1-13.913 30.424c-2.303 4.206-.756 9.481 3.459 11.784a8.61 8.61 0 0 0 4.163 1.069 8.677 8.677 0 0 0 7.63-4.519 251.892 251.892 0 0 0 14.947-32.683c1.676-4.493-.609-9.507-5.102-11.176zM107.082 334.999c-4.745-.53-9.107 2.755-9.724 7.508l-9.994 77.576-77.567-9.994c-4.753-.565-9.107 2.755-9.724 7.508-.617 4.762 2.746 9.116 7.508 9.733l86.188 11.097c.374.043.756.07 1.121.07 4.31 0 8.047-3.198 8.594-7.578l11.106-86.188c.617-4.762-2.746-9.115-7.508-9.732zM259.992 160.416c-52.705 0-95.59 42.885-95.59 95.59s42.885 95.59 95.59 95.59 95.591-42.885 95.591-95.59-42.886-95.59-95.591-95.59zm0 173.801c-43.129 0-78.21-35.082-78.21-78.21s35.082-78.21 78.21-78.21c43.129 0 78.21 35.082 78.21 78.21s-35.081 78.21-78.21 78.21z"/></svg>