<svg xmlns="http://www.w3.org/2000/svg" viewBox="0 0 512 512"><path d="M41.417 209.146c-5.068-2.192-10.977.078-13.208 5.146a342.81 342.81 0 0 0-14.264 38.723c-1.595 5.293 1.409 10.889 6.712 12.484a10.032 10.032 0 0 0 12.484-6.711 317.769 317.769 0 0 1 13.423-36.434c2.22-5.068-.08-10.977-5.147-13.208zM25.489 412.537a322.46 322.46 0 0 1-5.068-38.508c-.391-5.518-5.048-9.793-10.694-9.285-5.518.382-9.676 5.175-9.285 10.694a340.859 340.859 0 0 0 5.381 40.915c.92 4.784 5.117 8.111 9.823 8.111.626 0 1.272-.059 1.917-.186 5.431-1.048 8.983-6.302 7.926-11.741zM39.382 462.227a324.804 324.804 0 0 1-4.187-12.102c-1.693-5.254-7.318-8.13-12.621-6.438-5.263 1.702-8.14 7.357-6.438 12.621 1.399 4.315 2.877 8.6 4.442 12.846 1.487 4.05 5.322 6.555 9.402 6.555 1.154 0 2.319-.196 3.463-.616 5.195-1.908 7.846-7.671 5.939-12.866zM430.704 22.711a338.858 338.858 0 0 0-40.396-8.492c-5.499-.871-10.566 2.984-11.369 8.453-.812 5.469 2.974 10.566 8.453 11.369a320.628 320.628 0 0 1 37.99 7.983c.89.244 1.79.362 2.671.362 4.393 0 8.424-2.916 9.646-7.357 1.468-5.342-1.663-10.85-6.995-12.318zM279.157 26.028c-1.174-5.41-6.526-8.796-11.926-7.641a339.557 339.557 0 0 0-39.701 11.251c-5.215 1.829-7.964 7.543-6.134 12.767 1.438 4.119 5.312 6.702 9.451 6.702a9.84 9.84 0 0 0 3.317-.568 320.916 320.916 0 0 1 37.354-10.586 10.013 10.013 0 0 0 7.639-11.925zM349.246 10.668a348.823 348.823 0 0 0-41.247 1.38c-5.508.519-9.549 5.41-9.04 10.919.489 5.185 4.853 9.079 9.97 9.079.313 0 .626-.01.949-.039 12.777-1.203 25.985-1.663 38.821-1.301 5.283-.059 10.146-4.216 10.292-9.744a10.03 10.03 0 0 0-9.745-10.294zM16.077 285.008c-5.547-.939-10.635 2.729-11.564 8.179-2.309 13.452-3.815 27.247-4.5 41.003-.274 5.518 3.992 10.224 9.519 10.498.166.01.333.01.499.01 5.303 0 9.735-4.168 9.999-9.529a324.958 324.958 0 0 1 4.226-38.596c.939-5.46-2.729-10.635-8.179-11.565zM506.888 54.048a342.348 342.348 0 0 0-37.129-17.992c-5.127-2.074-10.967.333-13.08 5.449-2.104 5.117.333 10.977 5.449 13.081a320.065 320.065 0 0 1 34.937 16.935 10.027 10.027 0 0 0 13.648-3.825c2.711-4.823.999-10.938-3.825-13.648zM202.904 50.174c-2.456-4.96-8.473-7.005-13.423-4.54a349.42 349.42 0 0 0-8.296 4.246 9.95 9.95 0 0 0-4.028 3.948c-13.506-20.047-36.414-33.259-62.353-33.259-41.433 0-75.138 33.704-75.138 75.138 0 22.03 9.529 41.876 24.681 55.632a340.357 340.357 0 0 0-17.275 26.257c-2.818 4.755-1.252 10.899 3.512 13.726a9.966 9.966 0 0 0 5.097 1.399c3.424 0 6.751-1.751 8.629-4.911a320.9 320.9 0 0 1 16.549-25.1 74.655 74.655 0 0 0 33.944 8.135c41.433 0 75.138-33.705 75.138-75.138 0-9.522-1.8-18.628-5.046-27.02.328.034.655.066.986.066 1.575 0 3.18-.372 4.677-1.164 2.583-1.37 5.175-2.69 7.807-3.992 4.959-2.456 6.994-8.463 4.539-13.423zm-88.101 100.633c-30.378 0-55.101-24.723-55.101-55.101s24.723-55.101 55.101-55.101 55.101 24.723 55.101 55.101-24.723 55.101-55.101 55.101z"/><path d="M88.955 86.842c-.499-1.203-1.203-2.309-2.103-3.209-3.806-3.708-10.517-3.708-14.225 0-.9.9-1.604 2.005-2.103 3.209-.499 1.194-.802 2.505-.802 3.806 0 2.7.998 5.205 2.906 7.113 1.898 1.898 4.403 3.003 7.113 3.003 2.7 0 5.205-1.106 7.113-3.003 1.898-1.908 2.906-4.412 2.906-7.113-.003-1.301-.306-2.612-.805-3.806zM119.01 116.897c-.499-1.203-1.203-2.309-2.103-3.209-3.806-3.708-10.517-3.708-14.225 0-.9.9-1.604 2.005-2.103 3.209a10.085 10.085 0 0 0-.802 3.904c0 1.301.303 2.602.802 3.806.499 1.203 1.203 2.309 2.103 3.209a10.04 10.04 0 0 0 3.307 2.201c1.203.499 2.505.802 3.806.802 1.301 0 2.602-.303 3.806-.802a10.143 10.143 0 0 0 3.307-2.201c.9-.9 1.604-2.006 2.103-3.209.499-1.203.802-2.505.802-3.806a10.104 10.104 0 0 0-.803-3.904zM320.179 160.826c-93.912 0-170.312 76.4-170.312 170.312s76.4 170.312 170.312 170.312 170.312-76.4 170.312-170.312-76.399-170.312-170.312-170.312zM182.128 390.46c-7.854-18.21-12.224-38.261-12.224-59.322 0-28.737 8.118-55.605 22.165-78.459 25.635 11.525 45.016 21.115 57.63 28.534 7.387 4.334 11.926 1.82 14.451-1.027 3.17-3.61 2.886-9.646-.049-13.443-1.516-1.957-1.917-3.052-1.556-4.158.519-1.585 4.706-9.901 36.033-18.823 2.407-.44 6.741 2.964 7.934 5.136-20.79 58.418-26.817 57.821-46.932 55.747-11.994-1.252-28.441-2.925-51.618 3.16-7.993 2.094-12.865 11.026-13.394 18.364-.294 4.178.842 7.915 3.092 10.684l5.038 17.738a9.995 9.995 0 0 0 5.753 6.506c10.928 4.579 23.03 3.874 33.704 3.248 11.378-.655 21.191-1.233 27.277 3.806 7.534 6.261 15.067 31.033 9.187 44.359-1.81 4.119-5.371 8.59-17.072 7.024-17.444-2.397-33.88-9.725-51.276-17.473-8.795-3.923-17.884-7.974-27.149-11.349-.328-.12-.661-.169-.994-.252zm202.07 76.6c2.588-7.377 4.549-13.477 6.149-18.462 2.661-8.277 4.755-14.822 6.447-16.201 1.663-1.35 8.404-2.055 16.945-2.935 5.87-.604 13.12-1.355 22.196-2.602a151.157 151.157 0 0 1-51.737 40.2zm67.193-62.786c-.303.025-.602.012-.905.064-17.395 2.984-29.771 4.266-38.811 5.195-28.265 2.925-31.659 5.694-40.406 32.941-2.576 8.027-6.09 18.975-11.789 33.692a149.907 149.907 0 0 1-39.3 5.247c-50.275 0-94.827-24.836-122.121-62.857 1.355.599 2.712 1.201 4.053 1.798 17.914 7.983 36.434 16.241 56.715 19.019 2.387.333 4.706.499 6.956.499 14.519 0 25.682-6.809 31.18-19.283 9.49-21.543-.333-55.893-14.734-67.859-12.141-10.087-27.59-9.187-41.247-8.385-7.445.431-14.558.841-20.477-.411l-4.363-15.36a9.648 9.648 0 0 0-.792-1.966c18.471-4.491 31.572-3.121 42.187-2.035 30.906 3.189 44.026-1.751 68.221-69.972 2.397-6.76.323-14.313-5.694-20.732-6.085-6.486-17.033-12.161-26.729-9.431-28.362 8.062-44.544 18.129-49.417 30.75-8.756-4.52-21.534-10.784-40.002-19.147 27.582-33.658 69.451-55.179 116.265-55.179 53.888 0 101.218 28.524 127.744 71.251-9.622 9.397-19.834 18.625-29.742 27.563-21.26 19.176-43.243 38.997-61.333 62.233-14.881 19.098-28.666 40.504-18.07 54.406 4.187 5.489 10.684 8.072 19.89 8.072 18.843 0 49.045-10.801 94.089-29.527 4.227-1.754 8.673-3.598 12.677-5.22a149.505 149.505 0 0 1-14.045 34.634zm-6.325-47.914c-19.313 8.022-76.987 31.924-89.92 27.727.284-2.514 2.524-10.625 17.513-29.869 17.014-21.837 38.332-41.071 58.946-59.67 8.619-7.771 17.464-15.776 26.054-23.989a149.385 149.385 0 0 1 12.797 60.58c0 5.222-.272 10.383-.795 15.47-5.103 1.682-12.681 4.8-24.595 9.751z"/></svg>