<svg xmlns="http://www.w3.org/2000/svg" height="592pt" viewBox="0 0 592 592.155" width="592pt"><path d="M296.078 592a295.93 295.93 0 0 1-82.457-11.633l5.496-18.953a280.03 280.03 0 0 0 117.137 7.961l2.832 19.523A300.104 300.104 0 0 1 296.078 592zm84.242-12.156l-5.605-18.926a273.766 273.766 0 0 0 102.828-56.606l12.965 14.883a293.388 293.388 0 0 1-110.188 60.649zm-206.332-14.121A299.173 299.173 0 0 1 73.09 490.66l14.86-12.996a279.07 279.07 0 0 0 94.198 70.055zm346.32-76.457l-14.96-12.895a273.82 273.82 0 0 0 56.062-103.137l18.945 5.516a293.494 293.494 0 0 1-60.066 110.516zM47.696 456.984a292.502 292.502 0 0 1-44.46-117.671l19.538-2.86a272.944 272.944 0 0 0 41.438 109.785zm541.5-119.546l-19.535-2.731A280.836 280.836 0 0 0 572.344 296a276.477 276.477 0 0 0-11.27-78.363L580 212.043A296.386 296.386 0 0 1 592.078 296a301.991 301.991 0 0 1-2.883 41.438zM19.812 297.183H.078V296a293.597 293.597 0 0 1 26.64-122.93l17.946 8.211A274.165 274.165 0 0 0 19.812 296zm527.41-116.426a279.003 279.003 0 0 0-70.534-93.805l12.906-14.926A298.626 298.626 0 0 1 565.16 172.54zM63.59 146.688l-16.594-10.676a299.263 299.263 0 0 1 88.887-88.969l10.695 16.586a279.428 279.428 0 0 0-82.988 83.059zm381.535-83.344a272.866 272.866 0 0 0-110.023-40.887l2.753-19.535A292.67 292.67 0 0 1 455.79 46.727zm-264.012-18.63l-8.23-17.937A293.51 293.51 0 0 1 295.762 0v19.734a273.728 273.728 0 0 0-114.649 24.98zm0 0" fill="#fabc5f"/><path d="M300.488 532.8l-.363-19.734a216.813 216.813 0 0 0 107.547-30.824l10.16 16.922a236.69 236.69 0 0 1-117.344 33.637zm-41.008-2.765a236.26 236.26 0 0 1-111.707-49.43l12.372-15.382A216.57 216.57 0 0 0 262.53 510.48zm191.672-55.023l-12.937-14.918a217.6 217.6 0 0 0 62.902-92.621l18.637 6.492a237.428 237.428 0 0 1-68.602 100.996zM118.074 452.18a236.609 236.609 0 0 1-54.18-109.461l19.352-3.867a216.784 216.784 0 0 0 49.668 100.304zm411.754-118.133l-19.476-3.14A219.942 219.942 0 0 0 513.145 296a216.416 216.416 0 0 0-13.813-76.496l18.461-6.906A235.89 235.89 0 0 1 532.879 296c0 12.746-1.016 25.465-3.05 38.047zm-470.48-32.129a249.11 249.11 0 0 1-.07-5.918 236.957 236.957 0 0 1 31.445-117.996l17.101 9.867A217.098 217.098 0 0 0 79.012 296c0 1.793 0 3.582.07 5.375zm423.625-116.375a218.15 218.15 0 0 0-79.922-78.45l9.75-17.16a238.14 238.14 0 0 1 87.125 85.544zM129.41 156.93l-15.144-12.66a237.627 237.627 0 0 1 99.73-70.458l6.84 18.52a217.593 217.593 0 0 0-91.426 64.598zm239.387-65.516a219.003 219.003 0 0 0-111.602-9l-3.543-19.426a239.05 239.05 0 0 1 121.746 9.867zm0 0" fill="#f5ae45"/><path d="M463.809 296c0 92.637-75.094 167.73-167.73 167.73-92.638 0-167.735-75.093-167.735-167.73 0-92.637 75.097-167.734 167.734-167.734 92.637 0 167.73 75.097 167.73 167.734zm0 0" fill="#f09e26"/></svg>